<svg height="512" viewBox="0 0 64 64" width="512" xmlns="http://www.w3.org/2000/svg" xmlns:xlink="http://www.w3.org/1999/xlink"><linearGradient id="linear-gradient" gradientUnits="userSpaceOnUse" x2="65.376" y1="64" y2="-1.376"><stop offset="0" stop-color="#003f8a"/><stop offset=".518" stop-color="#00d7df"/><stop offset="1" stop-color="#006df0"/></linearGradient><linearGradient id="linear-gradient-2" x1=".811" x2="66.187" xlink:href="#linear-gradient" y1="64.811" y2="-.565"/><linearGradient id="linear-gradient-3" x1="-2.5" x2="62.876" xlink:href="#linear-gradient" y1="61.5" y2="-3.876"/><linearGradient id="linear-gradient-4" x1="1.75" x2="67.126" xlink:href="#linear-gradient" y1="65.75" y2=".374"/><g id="Music_edit" data-name="Music edit"><path d="m60 11h-56a3 3 0 0 0 -3 3v36a3 3 0 0 0 3 3h56a3 3 0 0 0 3-3v-36a3 3 0 0 0 -3-3zm1 7h-1.586l1.586-1.586zm-.07-4.344-4.344 4.344h-3.172l5-5h1.586a.994.994 0 0 1 .93.656zm-14.516 4.344 5-5h4.172l-5 5zm-7 0 5-5h4.172l-5 5zm-7 0 5-5h4.172l-5 5zm-7 0 5-5h4.172l-5 5zm-7 0 5-5h4.172l-5 5zm-7 0 5-5h4.172l-5 5zm-7 0 5-5h4.172l-5 5zm-.414-5h2.586l-3.586 3.586v-2.586a1 1 0 0 1 1-1zm57 37a1 1 0 0 1 -1 1h-56a1 1 0 0 1 -1-1v-30h58z" fill="url(#linear-gradient)"/><path d="m38.787 34.161-9.243-6a1 1 0 0 0 -1.544.839v12a1 1 0 0 0 1.544.839l9.243-6a1 1 0 0 0 0-1.678zm-8.787 5v-8.32l6.406 4.159z" fill="url(#linear-gradient-2)"/><path d="m16 47h-10a1 1 0 0 0 0 2h10a1 1 0 0 0 0-2z" fill="url(#linear-gradient-3)"/><path d="m20 47h-1a1 1 0 0 0 0 2h1a1 1 0 0 0 0-2z" fill="url(#linear-gradient-4)"/></g></svg>