<svg height="512" viewBox="0 0 64 64" width="512" xmlns="http://www.w3.org/2000/svg" xmlns:xlink="http://www.w3.org/1999/xlink"><linearGradient id="linear-gradient" gradientUnits="userSpaceOnUse" x1="2.5" x2="61.576" y1="61.5" y2="2.424"><stop offset="0" stop-color="#003f8a"/><stop offset=".518" stop-color="#00d7df"/><stop offset="1" stop-color="#006df0"/></linearGradient><linearGradient id="linear-gradient-2" x1="11" x2="70.076" xlink:href="#linear-gradient" y1="70" y2="10.924"/><linearGradient id="linear-gradient-3" x1="-8" x2="51.076" xlink:href="#linear-gradient" y1="51" y2="-8.076"/><linearGradient id="linear-gradient-4" x1=".75" x2="59.826" xlink:href="#linear-gradient" y1="59.75" y2=".674"/><linearGradient id="linear-gradient-5" x1="4.75" x2="63.826" xlink:href="#linear-gradient" y1="63.75" y2="4.674"/><path d="m61 10h-58a2 2 0 0 0 -2 2v40a2 2 0 0 0 2 2h58a2 2 0 0 0 2-2v-40a2 2 0 0 0 -2-2zm0 2v33.587l-21.293-21.294a1 1 0 0 0 -1.414 0l-9.293 9.293-5.293-5.293a1 1 0 0 0 -1.414 0l-19.293 19.293v-35.586zm-58 40v-1.586l20-20 11.293 11.293a1 1 0 0 0 1.414-1.414l-5.293-5.293 8.586-8.586 22 22v3.586z" fill="url(#linear-gradient)"/><path d="m37.707 42.293a1 1 0 0 0 -1.414 1.414l1 1a1 1 0 0 0 1.414-1.414z" fill="url(#linear-gradient-2)"/><path d="m23 25a5 5 0 1 0 -5-5 5.006 5.006 0 0 0 5 5zm0-8a3 3 0 1 1 -3 3 3 3 0 0 1 3-3z" fill="url(#linear-gradient-3)"/><path d="m45 16h1a1 1 0 0 0 0-2h-1a1 1 0 0 0 0 2z" fill="url(#linear-gradient-4)"/><path d="m49 16h9a1 1 0 0 0 0-2h-9a1 1 0 0 0 0 2z" fill="url(#linear-gradient-5)"/></svg>